<svg width="24" height="24" viewBox="0 0 21 21" fill="none" xmlns="http://www.w3.org/2000/svg">
<path d="M10.5932 2.11027C15.003 2.06968 18.6259 5.62648 18.6665 10.0363C18.7071 14.4461 15.1503 18.069 10.7404 18.1096C6.33063 18.1502 2.70774 14.5934 2.66715 10.1836C2.62656 5.77375 6.18337 2.15086 10.5932 2.11027ZM10.5748 0.110352C5.05501 0.161158 0.616429 4.6822 0.667236 10.202C0.718042 15.7217 5.23909 20.1603 10.7589 20.1095C16.2786 20.0587 20.7172 15.5377 20.6664 10.0179C20.6156 4.49812 16.0945 0.0595457 10.5748 0.110352ZM10.6944 13.1098L6.65778 9.14679L14.6574 9.07315L10.6944 13.1098Z" fill="white"/>
</svg>
