<svg id="Capa_1" enable-background="new 0 0 512 512" height="512" viewBox="0 0 512 512" width="512" xmlns="http://www.w3.org/2000/svg"><g><path d="m256 270c74.443 0 135-60.557 135-135s-60.557-135-135-135-135 60.557-135 135 60.557 135 135 135zm-15-207.237v-17.763c0-8.291 6.709-15 15-15s15 6.709 15 15v17.725c6.248 2.21 12.028 5.647 16.846 10.474 5.83 5.859 5.83 15.366-.029 21.211-5.859 5.83-15.381 5.859-21.24-.029-8.585-8.644-25.577-1.671-25.577 10.619 0 8.276 6.738 15 15 15 24.814 0 45 20.186 45 45 0 19.53-12.578 36.024-30 42.237v17.763c0 8.291-6.709 15-15 15s-15-6.709-15-15v-17.725c-6.248-2.21-12.028-5.647-16.846-10.474-5.83-5.859-5.83-15.366.029-21.211 5.859-5.83 15.381-5.859 21.24.029 8.585 8.629 25.577 1.671 25.577-10.619 0-8.276-6.738-15-15-15-24.814 0-45-20.186-45-45 0-19.53 12.578-36.024 30-42.237z"/><path d="m497 482h-16v-15c0-8.291-6.709-15-15-15h-420c-8.291 0-15 6.709-15 15v15h-16c-8.291 0-15 6.709-15 15s6.709 15 15 15h482c8.291 0 15-6.709 15-15s-6.709-15-15-15z"/><path d="m361 300h90v122h-90z"/><path d="m211 300h90v122h-90z"/><path d="m61 300h90v122h-90z"/><path d="m350.563 270h146.437c5.186 0 10.02-2.695 12.773-7.119 2.725-4.424 2.959-9.946.645-14.59l-61-120c-2.549-5.083-7.734-8.291-13.418-8.291h-15.76c.449 4.948.76 9.937.76 15 0 55.798-27.916 105.123-70.437 135z"/><path d="m15 270h146.437c-42.521-29.877-70.437-79.202-70.437-135 0-5.063.311-10.052.76-15h-15.76c-5.684 0-10.869 3.208-13.418 8.291l-61 120c-2.314 4.644-2.08 10.166.645 14.59 2.753 4.424 7.587 7.119 12.773 7.119z"/></g></svg>