<svg width="22" height="22" viewBox="0 0 22 22" fill="none" xmlns="http://www.w3.org/2000/svg">
<path d="M10.8 0C8.66397 0 6.5759 0.633409 4.79985 1.82013C3.0238 3.00685 1.63953 4.69358 0.822106 6.66702C0.00467942 8.64046 -0.209197 10.812 0.207524 12.907C0.624244 15.002 1.65284 16.9263 3.16325 18.4368C4.67366 19.9472 6.59803 20.9758 8.69303 21.3925C10.788 21.8092 12.9595 21.5953 14.933 20.7779C16.9064 19.9605 18.5932 18.5762 19.7799 16.8002C20.9666 15.0241 21.6 12.936 21.6 10.8C21.6 7.93566 20.4622 5.18864 18.4368 3.16325C16.4114 1.13785 13.6643 0 10.8 0ZM16.8 12H4.8V9.6H16.8V12Z" fill="#D20000"/>
</svg>
