<?xml version="1.0"?>
<svg xmlns="http://www.w3.org/2000/svg" viewBox="0 0 64 64" width="512" height="512"><g id="Money"><path d="M59.751,43.337a4,4,0,0,0-3.8.1L45.914,49.227A3.967,3.967,0,0,0,44.656,47a4.056,4.056,0,0,0-2.666-1H35.828a1.009,1.009,0,0,1-.707-.293l-.244-.244A4.964,4.964,0,0,0,31.345,44H24.657a4.966,4.966,0,0,0-3.535,1.464L21,45.586V43a1,1,0,0,0-1-1H11a1,1,0,0,0-1,1v1H3a1,1,0,0,0-1,1V59a1,1,0,0,0,1,1h7v1a1,1,0,0,0,1,1h9a1,1,0,0,0,1-1V58.868l.437.292a4.992,4.992,0,0,0,2.774.84H41.93a4.93,4.93,0,0,0,2.5-.674l15.52-8.96a3.962,3.962,0,0,0,2-3.466,4.012,4.012,0,0,0-.534-2A3.921,3.921,0,0,0,59.751,43.337ZM4,58V46h6V58Zm15,2H12V44h7ZM58.95,48.634,43.421,57.6a2.935,2.935,0,0,1-1.491.4H24.211a2.989,2.989,0,0,1-1.664-.5L21,56.465V48.414l1.536-1.536A3.02,3.02,0,0,1,24.657,46h6.688a2.979,2.979,0,0,1,2.118.877l.244.244A2.978,2.978,0,0,0,35.828,48H41.99a2.053,2.053,0,0,1,1.345.5,1.965,1.965,0,0,1,.659,1.288,1.871,1.871,0,0,1-.134.92,1.81,1.81,0,0,1-.447.708A1.986,1.986,0,0,1,42,52H35.42a1,1,0,0,0,0,2H42a3.979,3.979,0,0,0,2.828-1.173,3.846,3.846,0,0,0,.78-1.113l11.338-6.546a2.009,2.009,0,0,1,1.913-.04,1.926,1.926,0,0,1,.824.77,2.025,2.025,0,0,1,.267,1A1.983,1.983,0,0,1,58.95,48.634Z"/><path d="M51,19a2,2,0,0,1-2-2,1,1,0,0,0-1-1H20a1,1,0,0,0-1,1,2,2,0,0,1-2,2,1,1,0,0,0-1,1V32a1,1,0,0,0,1,1,2,2,0,0,1,2,2,1,1,0,0,0,1,1H48a1,1,0,0,0,1-1,2,2,0,0,1,2-2,1,1,0,0,0,1-1V20A1,1,0,0,0,51,19ZM50,31.126A4.015,4.015,0,0,0,47.127,34H20.874A4.016,4.016,0,0,0,18,31.126V20.874A4.016,4.016,0,0,0,20.874,18H47.127A4.015,4.015,0,0,0,50,20.874Z"/><path d="M46,25H44a1,1,0,0,0,0,2h2a1,1,0,0,0,0-2Z"/><path d="M24,25H22a1,1,0,0,0,0,2h2a1,1,0,0,0,0-2Z"/><path d="M34,20a6,6,0,1,0,6,6A6.006,6.006,0,0,0,34,20Zm0,10a4,4,0,1,1,4-4A4,4,0,0,1,34,30Z"/><path d="M61,6H19a1,1,0,0,0-1,1V9H16a1,1,0,0,0-1,1v2H13a1,1,0,0,0-1,1V39a1,1,0,0,0,1,1H55a1,1,0,0,0,1-1V37h2a1,1,0,0,0,1-1V34h2a1,1,0,0,0,1-1V7A1,1,0,0,0,61,6ZM54,38H14V14H54Zm3-3H56V13a1,1,0,0,0-1-1H17V11H57Zm3-3H59V10a1,1,0,0,0-1-1H20V8H60Z"/></g></svg>
