<svg id="Layer_1" enable-background="new 0 0 512 512" height="512" viewBox="0 0 512 512" width="512" xmlns="http://www.w3.org/2000/svg"><path clip-rule="evenodd" d="m389.196 153.552h30.704v-30.703h-30.705v30.703zm0 46.705h30.704v-30.705h-30.705v30.705zm0 46.703h30.704v-30.703h-30.705v30.703zm30.704 16h-30.705v10.18c4.91-1.25 10.054-1.915 15.353-1.915 5.298 0 10.442.665 15.352 1.915zm-297.096-109.408v-30.703h-30.704v30.703zm0 46.705v-30.705h-30.704v30.705zm0 46.703v-30.703h-30.704v30.703zm0 26.179v-10.18h-30.704v10.18c4.91-1.249 10.053-1.915 15.352-1.915s10.442.666 15.352 1.915zm-72.003-200.606h113.302v235.327c-5.314-11.802-14.209-21.643-25.299-28.143 0-54.956 0-109.912 0-164.868 0-4.418-3.582-8-8-8h-46.704c-4.418 0-8 3.582-8 8v164.867c-11.09 6.501-19.985 16.342-25.299 28.144zm205.199-31.352h46.705c4.418 0 8 3.582 8 8v140.112c0 4.418-3.582 8-8 8h-93.41c-4.418 0-8-3.582-8-8v-140.112c0-4.418 3.582-8 8-8zm8 16v30.703h30.705v-30.703zm-46.705 30.704h30.705v-30.704h-30.705zm0 46.704h30.705v-30.705h-30.705zm30.705 16h-30.705v30.705h30.705zm16 0v30.705h30.705v-30.705zm30.705-46.705h-30.705v30.705h30.705zm3.983 214.564v-45.577c0-11.731-4.805-22.402-12.546-30.142-7.741-7.741-18.413-12.546-30.144-12.546s-22.402 4.805-30.143 12.546-12.546 18.412-12.546 30.143v45.58c11.128-10.542 26.156-17.009 42.691-17.009 16.534-.002 31.56 6.465 42.688 17.005zm-118.585 32.246h15.134c.537-2.553 1.232-5.048 2.072-7.476v-70.348c0-16.148 6.6-30.822 17.234-41.455 10.633-10.633 25.308-17.233 41.456-17.233s30.823 6.6 41.456 17.233 17.233 25.307 17.233 41.455v70.338c.842 2.43 1.537 4.929 2.076 7.485h15.133v-339.693h-151.794zm-163.299 120.089h139.742c6.137-15.254 15.665-28.707 27.606-39.489-16.217-25.181-44.49-41.862-76.665-41.874h-.059c-47.028.013-85.73 35.631-90.624 81.363zm338.649 0h139.743c-4.895-45.739-43.61-81.363-90.648-81.363-32.189 0-60.478 16.684-76.701 41.874 11.942 10.782 21.469 24.236 27.606 39.489zm-190.101 30.217c4.894-45.736 43.603-81.358 90.637-81.363h.023c47.033.006 85.741 35.628 90.636 81.363zm182.545-428.467h113.302v235.327c-5.314-11.802-14.21-21.642-25.299-28.143 0-54.956 0-109.911 0-164.867 0-4.418-3.582-8-8-8h-46.704c-4.418 0-8 3.582-8 8v164.867c-11.089 6.501-19.985 16.342-25.299 28.144zm56.651 214.691c-25.459 0-46.098 20.639-46.098 46.098s20.639 46.098 46.098 46.098 46.098-20.639 46.098-46.098-20.639-46.098-46.098-46.098zm-297.096 0c-25.459 0-46.098 20.639-46.098 46.098s20.639 46.098 46.098 46.098 46.098-20.639 46.098-46.098-20.639-46.098-46.098-46.098zm148.548 30.217c25.459 0 46.098 20.639 46.098 46.098s-20.639 46.098-46.098 46.098-46.098-20.639-46.098-46.098 20.639-46.098 46.098-46.098z" fill-rule="evenodd"/></svg>