<svg width="24" height="24" viewBox="0 0 24 24" fill="none" xmlns="http://www.w3.org/2000/svg">
<path d="M12.884 2.53152C12.538 1.87752 11.462 1.87752 11.116 2.53152L2.116 19.5315C2.03529 19.6839 1.99537 19.8546 2.00011 20.027C2.00485 20.1994 2.05409 20.3676 2.14306 20.5154C2.23203 20.6631 2.35769 20.7853 2.50785 20.8702C2.658 20.955 2.82754 20.9996 3 20.9995H21C21.1725 20.9999 21.3421 20.9555 21.4923 20.8708C21.6425 20.7861 21.7682 20.6639 21.8571 20.5162C21.9461 20.3684 21.9952 20.2002 21.9997 20.0278C22.0043 19.8554 21.964 19.6847 21.883 19.5325L12.884 2.53152ZM13 17.9995H11V15.9995H13V17.9995ZM11 13.9995V8.99952H13L13.001 13.9995H11Z" fill="#D20000"/>
</svg>
