<svg width="24" height="24" viewBox="0 0 24 24" fill="none" xmlns="http://www.w3.org/2000/svg">
<path d="M17.98 7.50039C17.999 7.73839 18.009 7.85739 18.07 7.92139C18.132 7.98539 18.254 8.00139 18.499 8.03139C19.509 8.15788 20.4329 8.66468 21.0823 9.44857C21.7317 10.2325 22.0578 11.2344 21.9942 12.2504C21.9305 13.2663 21.482 14.2198 20.7399 14.9165C19.9978 15.6133 19.0179 16.0009 18 16.0004H17.5C17.264 16.0004 17.146 16.0004 17.073 15.9274C17 15.8544 17 15.7364 17 15.5004V14.0004C17 12.1144 17 11.1724 16.414 10.5864C15.828 10.0004 14.886 10.0004 13 10.0004H11C9.114 10.0004 8.172 10.0004 7.586 10.5864C7 11.1724 7 12.1144 7 14.0004V15.5004C7 15.7364 7 15.8544 6.927 15.9274C6.854 16.0004 6.736 16.0004 6.5 16.0004H6C4.98066 16.003 3.99878 15.6163 3.25493 14.9193C2.51109 14.2224 2.06139 13.2677 1.99769 12.2504C1.93399 11.233 2.26111 10.2297 2.91221 9.44541C3.56332 8.66111 4.48929 8.15497 5.501 8.03039C5.746 8.00039 5.868 7.98539 5.93 7.92139C5.991 7.85739 6.001 7.73839 6.02 7.50139C6.10081 6.52678 6.41871 5.58671 6.94599 4.76308C7.47328 3.93945 8.19396 3.25724 9.04525 2.77588C9.89654 2.29453 10.8526 2.02863 11.8302 2.00136C12.8078 1.97408 13.7772 2.18625 14.654 2.61939C15.5821 3.07716 16.376 3.7672 16.9586 4.62246C17.5412 5.47772 17.8938 6.46914 17.98 7.50039Z" fill="#F24E1E"/>
<path fill-rule="evenodd" clip-rule="evenodd" d="M8.586 11.586C8 12.172 8 13.114 8 15V17C8 18.886 8 19.828 8.586 20.414C9.172 21 10.114 21 12 21C13.886 21 14.828 21 15.414 20.414C16 19.828 16 18.886 16 17V15C16 13.114 16 12.172 15.414 11.586C14.828 11 13.886 11 12 11C10.114 11 9.172 11 8.586 11.586ZM11.5 15C11.2348 15 10.9804 15.1054 10.7929 15.2929C10.6054 15.4804 10.5 15.7348 10.5 16C10.5 16.2652 10.6054 16.5196 10.7929 16.7071C10.9804 16.8946 11.2348 17 11.5 17H12.5C12.7652 17 13.0196 16.8946 13.2071 16.7071C13.3946 16.5196 13.5 16.2652 13.5 16C13.5 15.7348 13.3946 15.4804 13.2071 15.2929C13.0196 15.1054 12.7652 15 12.5 15H11.5Z" fill="#F24E1E"/>
</svg>
