<svg id="Layer_1" height="512" viewBox="0 0 64 64" width="512" xmlns="http://www.w3.org/2000/svg"><g><g><g><path d="m49.5 32.6c-.3 0-.6-.1-.8-.4l-.7-.9c-.7-.9-.8-2.1-.3-3.1.2-.4.4-.8.5-1.3.4-1.1 1.3-1.8 2.5-2l3.2-.5c.5-.1.9-.5.9-1v-2.2c0-.5-.4-.9-.9-1l-3.2-.5c-1.1-.2-2.1-.9-2.5-2-.1-.4-.3-.8-.5-1.2-.5-1.1-.4-2.3.3-3.2l2-2.7c.3-.4.3-1-.1-1.3l-1.6-1.5c-.4-.4-1-.4-1.4-.1l-2.6 1.9c-.9.7-2.2.8-3.2.3-.4-.2-.8-.4-1.2-.5-1.1-.4-1.9-1.3-2-2.4l-.5-3.2c-.1-.5-.5-.9-1-.9h-2.2c-.5 0-1 .4-1 .9l-.5 3.2c-.1 1.1-.9 2.1-2 2.5-.4.2-.8.3-1.2.5-1.1.5-2.3.4-3.2-.3l-2.6-1.9c-.4-.3-1-.3-1.4.1l-1.5 1.5c-.4.4-.4.9-.1 1.3l2 2.7c.7.9.8 2.1.3 3.2-.2.4-.3.8-.5 1.3-.4 1.1-1.3 1.8-2.5 2l-3.2.5c-.5.1-.9.5-.9 1v2.2c0 .5.4.9.9 1l3.2.5c1.1.2 2.1.9 2.5 2 .2.5.3.9.5 1.2.3.6.4 1.3.3 1.9s-.6.9-1.2.8-.9-.6-.8-1.2c0-.2 0-.4-.1-.6-.2-.5-.4-1-.6-1.4-.1-.4-.5-.6-.8-.7l-3.2-.5c-1.5-.2-2.6-1.5-2.6-3.1v-2.2c0-1.5 1.1-2.8 2.6-3.1l3.2-.5c.4-.1.7-.3.8-.7.2-.5.4-1 .6-1.4.2-.3.1-.7-.1-1l-2-2.6c-.9-1.2-.8-2.9.3-4l1.6-1.6c.9-1.3 2.6-1.4 3.8-.4l2.6 1.9c.3.2.7.3 1.1.1s.9-.4 1.4-.6c.4-.1.6-.4.7-.8l.5-3.3c.2-1.5 1.5-2.6 3.1-2.6h2.2c1.5 0 2.8 1.1 3.1 2.6l.5 3.2c.1.4.3.7.7.8.5.2 1 .4 1.4.6.3.2.8.1 1.1-.1l2.6-1.9c1.2-.9 3-.8 4.1.3l1.6 1.6c1.1 1.1 1.2 2.8.3 4l-2 2.7c-.2.3-.3.7-.1 1 .2.5.4 1 .6 1.4.1.4.4.6.8.7l3.2.5c1.5.2 2.6 1.5 2.6 3.1v2.2c0 1.5-1.1 2.8-2.6 3.1l-3.3.4c-.4.1-.7.3-.8.7-.2.6-.4 1-.6 1.4-.2.3-.1.7.1 1l.6.9c.3.5.2 1.1-.2 1.4-.2.2-.4.3-.6.3z"/></g><g><path d="m35.3 32.6c-5.8 0-10.5-4.6-10.5-10.3s4.7-10.3 10.5-10.3 10.5 4.6 10.5 10.3c0 5.6-4.7 10.3-10.5 10.3zm0-18.6c-4.6 0-8.4 3.7-8.4 8.3s3.8 8.3 8.4 8.3 8.4-3.7 8.4-8.3-3.8-8.3-8.4-8.3z"/></g><g><path d="m24.7 53.4c-.5 0-.9-.3-1-.8-.2-.5.2-1.1.7-1.3.8-.2 1.6-.3 2.5-.3h15.7c1.6 0 3.1-.5 4.3-1.4 5.9-4.3 10.9-10.1 14.9-17.2.2-.3.2-.7.1-1s-.3-.6-.7-.8c-.7-.3-1.4-.5-2.2-.5-1.7 0-3.3.9-4.2 2.3-.2.4-1.5 2.8-2.3 3.6-1.4 1.3-5.5 3.2-6.8 3.7-.5.2-1.1 0-1.4-.5-.2-.5 0-1.1.5-1.4 2.5-1.1 5.4-2.6 6.2-3.4.4-.3 1.3-1.9 1.9-3.1 1.3-2.1 3.6-3.3 6-3.3 1.1 0 2.1.2 3.1.7.8.4 1.5 1.1 1.7 2 .3.9.2 1.8-.3 2.6-4.1 7.3-9.3 13.3-15.4 17.8-1.6 1.2-3.5 1.8-5.6 1.8h-15.5c-.7 0-1.3.1-1.9.3-.1.2-.2.2-.3.2z"/></g><g><path d="m42.4 44.7h-13.1c-.6 0-1-.5-1-1s.5-1 1-1h13.1c1.2 0 2.2-1 2.2-2.2 0-.6-.2-1.1-.7-1.5-.4-.4-1-.6-1.6-.6h-6.9c-1.9 0-3.8-.6-5.4-1.8-1-1.1-2.4-1.6-3.9-1.6h-5c-1.7 0-3.4.6-4.6 1.8l-3.8 3.6c-.4.4-1.1.4-1.5 0s-.4-1.1 0-1.5l3.8-3.6c1.6-1.5 3.8-2.4 6-2.4h5c1.9 0 3.8.6 5.4 1.8 1.2.9 2.6 1.4 4.1 1.4h6.9c1.1 0 2.3.5 3 1.2.8.8 1.3 1.9 1.3 3 0 2.5-1.9 4.4-4.3 4.4z"/></g><g><path d="m17.1 63.3c-.3 0-.5-.1-.7-.3l-16.1-15.9c-.2-.2-.3-.4-.3-.7s.1-.5.3-.7l4.2-4.1c1.3-1.3 3.6-1.3 4.9 0l12.6 12.4c.7.6 1 1.5 1 2.4s-.4 1.8-1 2.5l-4.2 4.1c-.2.2-.4.3-.7.3zm-14.6-16.9 14.6 14.4 3.5-3.4c.3-.3.4-.6.4-1s-.1-.7-.4-1l-12.7-12.4c-.5-.5-1.5-.5-2 0z"/></g></g></g></svg>