<?xml version="1.0" encoding="UTF-8"?>
<svg xmlns="http://www.w3.org/2000/svg" xmlns:xlink="http://www.w3.org/1999/xlink" version="1.1" id="Capa_1" x="0px" y="0px" viewBox="0 0 512 512" style="enable-background:new 0 0 512 512;" xml:space="preserve" width="512" height="512">
<g id="XMLID_477_">
	<g id="XMLID_480_">
		<g id="XMLID_482_">
			
				<path id="XMLID_485_" style="fill:none;stroke:#000000;stroke-width:20;stroke-linecap:round;stroke-linejoin:round;stroke-miterlimit:10;" d="&#10;&#9;&#9;&#9;&#9;M275.887,212.459c0,0-0.029-0.024-0.085-0.07c-0.034-0.027-0.078-0.063-0.132-0.105c-1.692-1.329-13.124-9.655-28.548-5.009&#10;&#9;&#9;&#9;&#9;c-16.019,4.826-19.997,26.744-9.111,35.282c6.251,4.903,15.656,8.933,28.331,13.414c28.369,10.028,17.882,50.036-10.975,50.228&#10;&#9;&#9;&#9;&#9;c-11.261,0.075-16.526-0.64-26.419-7.112"/>
			
				<line id="XMLID_484_" style="fill:none;stroke:#000000;stroke-width:20;stroke-linecap:round;stroke-linejoin:round;stroke-miterlimit:10;" x1="256" y1="185.714" x2="256" y2="205.796"/>
			
				<line id="XMLID_483_" style="fill:none;stroke:#000000;stroke-width:20;stroke-linecap:round;stroke-linejoin:round;stroke-miterlimit:10;" x1="256" y1="306.204" x2="256" y2="326.286"/>
		</g>
		
			<circle id="XMLID_481_" style="fill:none;stroke:#000000;stroke-width:20;stroke-linecap:round;stroke-linejoin:round;stroke-miterlimit:10;" cx="256" cy="256" r="110.449"/>
	</g>
	
		<polyline id="XMLID_479_" style="fill:none;stroke:#000000;stroke-width:20;stroke-linecap:round;stroke-linejoin:round;stroke-miterlimit:10;" points="&#10;&#9;&#9;345.112,190.735 411.633,190.735 411.633,230.898 502,150.571 411.633,70.245 411.633,110.408 291.143,110.408 291.143,151.264 &#9;&#10;&#9;&#9;"/>
	
		<polyline id="XMLID_478_" style="fill:none;stroke:#000000;stroke-width:20;stroke-linecap:round;stroke-linejoin:round;stroke-miterlimit:10;" points="&#10;&#9;&#9;166.888,321.265 100.367,321.265 100.367,281.102 10,361.429 100.367,441.755 100.367,401.592 220.857,401.592 220.857,360.736 &#9;&#10;&#9;&#9;"/>
</g>















</svg>
