<svg clip-rule="evenodd" fill-rule="evenodd" height="512" stroke-linejoin="round" stroke-miterlimit="2" viewBox="0 0 134 134" width="512" xmlns="http://www.w3.org/2000/svg"><path d="m66.667 12.5c-29.896 0-54.167 24.271-54.167 54.167 0 29.895 24.271 54.166 54.167 54.166 29.895 0 54.166-24.271 54.166-54.166 0-29.896-24.271-54.167-54.166-54.167zm0 8.333c25.296 0 45.833 20.538 45.833 45.834s-20.537 45.833-45.833 45.833-45.834-20.537-45.834-45.833 20.538-45.834 45.834-45.834zm14.94 56.25h-39.94c-2.3 0-4.167 1.867-4.167 4.167s1.867 4.167 4.167 4.167h39.94l-4.672 4.672c-1.626 1.626-1.626 4.266 0 5.892s4.267 1.626 5.893 0l11.785-11.785c1.627-1.627 1.627-4.265 0-5.892l-11.785-11.785c-1.626-1.626-4.267-1.626-5.893 0s-1.626 4.266 0 5.892zm-29.881-20.833h39.941c2.299 0 4.166-1.867 4.166-4.167 0-2.299-1.867-4.166-4.166-4.166h-39.941l4.672-4.673c1.626-1.626 1.626-4.266 0-5.892s-4.266-1.626-5.892 0l-11.786 11.785c-1.627 1.627-1.627 4.265 0 5.893l11.786 11.785c1.626 1.626 4.266 1.626 5.892 0s1.626-4.267 0-5.893z"/></svg>