<svg id="magicoon-Filled" height="512" viewBox="0 0 512 512" width="512" xmlns="http://www.w3.org/2000/svg"><g id="users-three-Filled"><path id="users-three-Filled-2" d="m434.133 143.146a78.8 78.8 0 0 1 -55.68 75.307 126.1 126.1 0 0 0 5.547-37.12 127.792 127.792 0 0 0 -62.507-109.864 80.342 80.342 0 0 1 33.707-7.469 79.071 79.071 0 0 1 78.933 79.146zm-16 97.922a35.1 35.1 0 0 0 -26.667 3.2 70.983 70.983 0 0 1 -29.652 8.744 108.776 108.776 0 0 1 -14.934 18.136 115.726 115.726 0 0 1 78.08 91.521h14.72a26.209 26.209 0 0 0 23.254-13.438 54.441 54.441 0 0 0 6.4-25.818v-15.147c-.001-31.787-21.12-59.308-51.201-67.198zm-227.626-169.599a80.342 80.342 0 0 0 -33.707-7.469 78.985 78.985 0 0 0 -23.252 154.453 126.1 126.1 0 0 1 -5.548-37.12 127.792 127.792 0 0 1 62.507-109.864zm-25.387 199.677a108.776 108.776 0 0 1 -14.934-18.136 70.983 70.983 0 0 1 -29.652-8.744 35.1 35.1 0 0 0 -26.667-3.2c-30.081 7.89-51.2 35.411-51.2 67.2v15.145a54.441 54.441 0 0 0 6.4 25.818 26.118 26.118 0 0 0 23.041 13.438h14.932a115.726 115.726 0 0 1 78.08-91.521zm167.254 29.015a49.758 49.758 0 0 0 -11.308-1.494 43.323 43.323 0 0 0 -21.119 5.547 91.058 91.058 0 0 1 -87.894 0 43.323 43.323 0 0 0 -21.119-5.547 49.758 49.758 0 0 0 -11.308 1.494 84.375 84.375 0 0 0 -62.293 81.7v18.562a65.558 65.558 0 0 0 7.894 31.146c5.333 10.239 16 16.427 27.946 16.427h205.654c11.946 0 22.613-6.188 27.946-16.427a65.558 65.558 0 0 0 7.894-31.146v-18.558a84.375 84.375 0 0 0 -62.293-81.704zm19.626-118.828a96 96 0 1 0 -96 96 96 96 0 0 0 96-96z" data-name="users-three-Filled"/></g></svg>