<svg id="Layer_1" enable-background="new 0 0 512 512" height="512" viewBox="0 0 512 512" width="512" xmlns="http://www.w3.org/2000/svg"><path d="m464.299 214.018c22.908 0 41.548-18.635 41.548-41.549v-43.822c0-4.451-3.606-8.061-8.061-8.061h-58.91v-63.834c0-22.908-18.639-41.547-41.547-41.547h-317.13c-22.367 0-40.557 18.191-40.557 40.561v381.354c-.034 13.992-11.439 25.404-25.429 25.449-.011 0-.015 0-.022 0-4.448.014-8.044 3.623-8.038 8.064.002 4.451 3.609 8.055 8.061 8.055h45.523c1.338 0 2.653-.332 3.833-.973l22.411-12.119 11.498 10.883c1.541 1.455 3.532 2.209 5.547 2.209 1.332 0 2.682-.332 3.898-1.008l24.436-13.535 24.43 13.535c2.124 1.174 4.671 1.334 6.915.42l29.323-11.818 18.59 11.24c2.396 1.447 5.355 1.551 7.846.277l22.452-11.521 24.748 11.645c1.073.502 2.247.766 3.43.766h49.938c.045 0 .086-.012.133-.012 18.659 11.48 40.601 18.119 64.067 18.119 67.612 0 122.614-55.006 122.614-122.617 0-67.609-55.002-122.613-122.614-122.613-3.821 0-7.597.199-11.329.545v-38.092h92.396zm25.429-77.313v35.764c0 14.025-11.407 25.432-25.429 25.432h-.896c-.07-.004-.131-.027-.197-.029-13.609-.611-24.299-11.779-24.33-25.402v-35.764h50.852zm-66.967-79.953v115.742c.023 9.566 3.276 18.379 8.723 25.406h-59.58v-141.127c.029-13.25 9.989-24.146 23.157-25.342.189-.02.367-.078.554-.107h1.715c14.02 0 25.431 11.41 25.431 25.428zm66.967 317.426c0 58.725-47.771 106.498-106.495 106.498-58.721 0-106.499-47.773-106.499-106.498 0-58.721 47.778-106.496 106.499-106.496 58.723 0 106.495 47.775 106.495 106.496zm-229.11 0c0 34.707 14.514 66.063 37.768 88.391h-27.491l-26.704-12.561c-2.266-1.066-4.88-1.02-7.104.123l-21.977 11.275-18.193-10.998c-2.171-1.318-4.826-1.535-7.179-.578l-29.5 11.891-24.978-13.836c-2.427-1.346-5.381-1.346-7.807 0l-23.176 12.836-11.454-10.848c-2.54-2.389-6.313-2.891-9.373-1.232l-25.759 13.928h-10.71c5.475-7.035 8.752-15.859 8.777-25.428v-381.375c0-13.477 10.965-24.441 24.44-24.441h284.252c-5.429 7.031-8.643 15.844-8.668 25.428v197.947c-54.433 12.505-95.164 61.308-95.164 119.478zm49.333-255.522c0 4.451-3.609 8.057-8.06 8.057h-192.235c-4.454 0-8.061-3.605-8.061-8.057 0-4.453 3.606-8.059 8.061-8.059h192.235c4.451.001 8.06 3.606 8.06 8.059zm0 51.317c0 4.449-3.609 8.059-8.06 8.059h-192.235c-4.454 0-8.061-3.609-8.061-8.059 0-4.451 3.606-8.061 8.061-8.061h192.235c4.451 0 8.06 3.609 8.06 8.061zm0 51.322c0 4.449-3.609 8.057-8.06 8.057h-192.235c-4.454 0-8.061-3.607-8.061-8.057 0-4.457 3.606-8.063 8.061-8.063h192.235c4.451 0 8.06 3.606 8.06 8.063zm-20.992 51.31c0 4.453-3.606 8.059-8.059 8.059h-171.244c-4.454 0-8.061-3.605-8.061-8.059s3.606-8.059 8.061-8.059h171.244c4.453.001 8.059 3.606 8.059 8.059zm-35.417 51.317c0 4.451-3.606 8.057-8.057 8.057h-135.829c-4.454 0-8.061-3.605-8.061-8.057s3.606-8.063 8.061-8.063h135.829c4.451 0 8.057 3.612 8.057 8.063zm-9.446 51.31c0 4.455-3.606 8.064-8.059 8.064h-126.381c-4.454 0-8.061-3.609-8.061-8.064 0-4.447 3.606-8.051 8.061-8.051h126.381c4.452.001 8.059 3.604 8.059 8.051zm79.017-1.054c0-4.449 3.606-8.061 8.056-8.061h44.005v-73.82c0-4.447 3.608-8.057 8.059-8.057s8.058 3.609 8.058 8.057v81.881c0 4.453-3.606 8.063-8.058 8.063h-52.063c-4.45-.001-8.057-3.61-8.057-8.063z"/></svg>